<svg width="13" height="12" viewBox="0 0 13 12" fill="none" xmlns="http://www.w3.org/2000/svg">
<path d="M9.6262 8.6017L12.1229 11.0984L11.2945 11.9267L8.79786 9.43003C8.33898 9.79559 7.83731 10.0756 7.29286 10.27C6.71731 10.4723 6.1262 10.5734 5.51953 10.5734C4.57064 10.5734 3.68786 10.3361 2.8712 9.8617C2.07786 9.39503 1.45175 8.76503 0.992865 7.9717C0.510642 7.15503 0.269531 6.27225 0.269531 5.32336C0.269531 4.37447 0.510642 3.4917 0.992865 2.67503C1.45175 1.8817 2.07786 1.25559 2.8712 0.796697C3.68786 0.314474 4.57064 0.0733633 5.51953 0.0733633C6.46842 0.0733633 7.3512 0.314474 8.16786 0.796697C8.9612 1.25559 9.5912 1.8817 10.0579 2.67503C10.5323 3.4917 10.7695 4.37447 10.7695 5.32336C10.7695 5.93003 10.6684 6.52114 10.4662 7.0967C10.2718 7.64114 9.99175 8.14281 9.6262 8.6017ZM8.44786 8.17003C8.81342 7.7967 9.09731 7.36892 9.29953 6.8867C9.50175 6.38892 9.60286 5.86781 9.60286 5.32336C9.60286 4.58447 9.4162 3.89614 9.04286 3.25836C8.68509 2.64392 8.19898 2.15781 7.58453 1.80003C6.94675 1.4267 6.25842 1.24003 5.51953 1.24003C4.78064 1.24003 4.09231 1.4267 3.45453 1.80003C2.84009 2.15781 2.35398 2.64392 1.9962 3.25836C1.62286 3.89614 1.4362 4.58447 1.4362 5.32336C1.4362 6.06225 1.62286 6.75059 1.9962 7.38836C2.35398 8.00281 2.84009 8.48892 3.45453 8.8467C4.09231 9.22003 4.78064 9.4067 5.51953 9.4067C6.06398 9.4067 6.58509 9.30559 7.08286 9.10336C7.56509 8.90114 7.99286 8.61725 8.3662 8.2517L8.44786 8.17003Z" fill="white"/>
</svg>
