<svg width="16" height="16" viewBox="0 0 16 16" fill="none" xmlns="http://www.w3.org/2000/svg">
<path d="M5.32078 7.03571C5.7112 7.7273 6.18806 8.35475 6.75137 8.91806C7.31468 9.48137 7.94213 9.95824 8.63373 10.3486L9.36993 9.31126C9.49264 9.13279 9.65717 9.02124 9.86353 8.97662C10.0699 8.932 10.2679 8.95989 10.4575 9.06028C11.6511 9.71841 12.9283 10.0977 14.2892 10.1981C14.5011 10.2204 14.6824 10.3096 14.8329 10.4658C14.9835 10.6219 15.0588 10.8116 15.0588 11.0347V14.7659C15.0588 14.9778 14.9863 15.1647 14.8413 15.3264C14.6963 15.4882 14.5178 15.5802 14.3059 15.6025C13.8597 15.6471 13.4135 15.6694 12.9673 15.6694C11.2049 15.6694 9.52052 15.3292 7.91425 14.6488C6.36375 13.9907 4.99172 13.0648 3.79817 11.8713C2.60462 10.6777 1.67878 9.30569 1.02065 7.75519C0.340218 6.14891 0 4.46455 0 2.70211C0 2.25593 0.0223094 1.80974 0.0669281 1.36355C0.0892375 1.15161 0.181264 0.973138 0.343007 0.828127C0.504749 0.683116 0.69159 0.61061 0.903529 0.61061H4.63477C4.85786 0.61061 5.04749 0.685905 5.20366 0.836493C5.35983 0.987081 5.44906 1.16834 5.47137 1.38028C5.57176 2.74115 5.95102 4.01837 6.60915 5.21192C6.70954 5.40155 6.73743 5.59954 6.69281 5.8059C6.64819 6.01227 6.53664 6.1768 6.35817 6.2995L5.32078 7.03571ZM3.21255 6.48355L4.80209 5.34577C4.3559 4.37532 4.04915 3.35466 3.88183 2.28381H1.6732V2.70211C1.6732 4.23031 1.9688 5.69715 2.56 7.10264C3.12889 8.45235 3.93481 9.64869 4.97778 10.6917C6.02074 11.7346 7.21708 12.5405 8.5668 13.1094C9.97229 13.7006 11.4391 13.9962 12.9673 13.9962H13.3856V11.7876C12.3148 11.6203 11.2941 11.3135 10.3237 10.8673L9.18588 12.4569C8.72854 12.2784 8.28235 12.0665 7.84732 11.8211L7.79712 11.8043C6.98283 11.3358 6.24105 10.767 5.57176 10.0977C4.90248 9.42839 4.33359 8.6866 3.8651 7.87231L3.84837 7.82211C3.60296 7.38708 3.39102 6.94089 3.21255 6.48355Z" fill="#F53E32"/>
</svg>
